<?xml version="1.0" encoding="utf-8"?>
<!-- Generator: Adobe Illustrator 25.4.8, SVG Export Plug-In . SVG Version: 6.00 Build 0)  -->
<svg version="1.1" id="transformer-bolt" xmlns="http://www.w3.org/2000/svg" xmlns:xlink="http://www.w3.org/1999/xlink" x="0px"
	 y="0px" viewBox="0 0 37.6 48.5" style="enable-background:new 0 0 37.6 48.5;" xml:space="preserve">
<style type="text/css">
	.st0{fill:#000000;stroke:#FFFFFF;stroke-width:0.5;stroke-miterlimit:10;}
	.st1{fill:#000000;stroke:#FFFFFF;stroke-miterlimit:10;}
</style>
<path class="st0" d="M30.2,12.5h-8.7c-0.7,0-1.3-0.6-1.3-1.3v0c0-0.7,0.6-1.3,1.3-1.3h8.7c0.7,0,1.3,0.6,1.3,1.3v0
	C31.5,11.9,31,12.5,30.2,12.5z"/>
<path class="st0" d="M15.8,12.5H7.2c-0.7,0-1.3-0.6-1.3-1.3v0c0-0.7,0.6-1.3,1.3-1.3h8.7c0.7,0,1.3,0.6,1.3,1.3v0
	C17.1,11.9,16.6,12.5,15.8,12.5z"/>
<path class="st0" d="M15.7,4.2h-2.1V3.3c0-1.2-0.9-2.1-2.1-2.1S9.4,2.2,9.4,3.3v0.9H7.1c-0.7,0-1.3,0.6-1.3,1.3s0.6,1.3,1.3,1.3h8.7
	c0.7,0,1.3-0.6,1.3-1.3S16.5,4.2,15.7,4.2z"/>
<path class="st1" d="M30.1,4.2h-2.3V3.3c0-1.2-0.9-2.1-2.1-2.1h0c-1.2,0-2.1,0.9-2.1,2.1v0.8h-2.2c-0.7,0-1.3,0.6-1.3,1.3
	s0.6,1.3,1.3,1.3h8.7c0.7,0,1.3-0.6,1.3-1.3S30.9,4.2,30.1,4.2z"/>
<path class="st0" d="M32.8,41.4L32.8,41.4l0-20.5c1.4,0,2.6-1.2,2.6-2.7c0-1.5-1.2-2.7-2.7-2.7H4.3c-1.5,0-2.7,1.2-2.7,2.7
	c0,1.5,1.2,2.7,2.7,2.7h0.1v20.5h0c-1.5,0-2.7,1.2-2.7,2.7c0,1.5,1.2,2.7,2.7,2.7h0h28.3h0c1.5,0,2.7-1.2,2.7-2.7
	C35.4,42.6,34.2,41.4,32.8,41.4z M26.4,32.6l-9.1,7.9c-0.7,0.6-2.2,0.9-2.7,0.3c-0.5-0.6-0.4-0.9-0.4-1.5c0.1-0.5,1.5-4.6,2.4-6.7
	l0-0.1c-3.1,0-5.4,0-5.7,0c-0.3,0-0.6-0.3-0.6-0.3c-0.7-1-0.5-1.7,0.3-2.5l9.1-7.9c0.7-0.6,1.5-1,2.6-0.3c0,0,0.5,0.6,0.5,1.2
	c0,0.6-1.6,5-2.5,7.2c3.1,0,4.6,0,5.4,0c0.8,0,0.9,0.2,1,0.3C27.4,31.2,27.1,31.9,26.4,32.6z"/>
</svg>
