<?xml version="1.0" encoding="utf-8"?>
<!-- Generator: Adobe Illustrator 27.2.0, SVG Export Plug-In . SVG Version: 6.00 Build 0)  -->
<svg version="1.1" id="Layer_1" xmlns="http://www.w3.org/2000/svg" xmlns:xlink="http://www.w3.org/1999/xlink" x="0px" y="0px"
	 viewBox="0 0 63.8 75.5" style="enable-background:new 0 0 63.8 75.5;" xml:space="preserve">
<style type="text/css">
	.st0{fill:#FFFFFF;stroke:#FFFFFF;stroke-width:0.75;stroke-miterlimit:10;}
	.st1{fill:none;stroke:#FFFFFF;stroke-width:4;stroke-miterlimit:10;}
	.st2{fill:#FFFFFF;}
</style>
<path class="st0" d="M45.3,59H34.5V43.5h-3.2V59H20.6c-0.8,0-1.5,0.7-1.5,1.5s0.7,1.5,1.5,1.5h24.7c0.8,0,1.5-0.7,1.5-1.5
	C46.8,59.7,46.1,59,45.3,59z"/>
<path class="st1" d="M9.1,22.1c4.5-0.2,16.9-0.7,19.9-0.9c0.4,0,0.8-0.2,1.2-0.4l15.6-12c0.8-0.6,1.9-0.6,2.7,0.1l0,0
	c0.7,0.7,0.9,1.7,0.5,2.6l-8.8,17.7C40,29.6,39.9,30,40,30.4l2.2,19.7c0.1,1-0.5,2-1.4,2.3h-0.1c-0.9,0.3-1.9,0-2.5-0.8L27.4,35
	c-0.2-0.4-0.6-0.6-0.9-0.8l-18.1-8c-1-0.4-1.5-1.5-1.2-2.6l0,0C7.4,22.8,8.2,22.2,9.1,22.1z"/>
<circle class="st2" cx="33" cy="29.1" r="2"/>
</svg>
